<?xml version="1.0" encoding="UTF-8" standalone="no"?>
<!-- Created with Inkscape (http://www.inkscape.org/) -->

<svg
   xmlns:dc="http://purl.org/dc/elements/1.1/"
   xmlns:cc="http://creativecommons.org/ns#"
   xmlns:rdf="http://www.w3.org/1999/02/22-rdf-syntax-ns#"
   xmlns:svg="http://www.w3.org/2000/svg"
   xmlns="http://www.w3.org/2000/svg"
   xmlns:sodipodi="http://sodipodi.sourceforge.net/DTD/sodipodi-0.dtd"
   xmlns:inkscape="http://www.inkscape.org/namespaces/inkscape"
   width="2514.25"
   height="520"
   id="svg37869"
   version="1.1"
   inkscape:version="0.48.1 "
   sodipodi:docname="Neues Dokument 5">
  <defs
     id="defs37871" />
  <sodipodi:namedview
     id="base"
     pagecolor="#ffffff"
     bordercolor="#666666"
     borderopacity="1.0"
     inkscape:pageopacity="0.0"
     inkscape:pageshadow="2"
     inkscape:zoom="0.62142951"
     inkscape:cx="1257.125"
     inkscape:cy="260.00001"
     inkscape:document-units="px"
     inkscape:current-layer="layer1"
     showgrid="false"
     fit-margin-top="0"
     fit-margin-left="0"
     fit-margin-right="0"
     fit-margin-bottom="0"
     inkscape:window-width="1680"
     inkscape:window-height="990"
     inkscape:window-x="-4"
     inkscape:window-y="-4"
     inkscape:window-maximized="1" />
  <metadata
     id="metadata37874">
    <rdf:RDF>
      <cc:Work
         rdf:about="">
        <dc:format>image/svg+xml</dc:format>
        <dc:type
           rdf:resource="http://purl.org/dc/dcmitype/StillImage" />
        <dc:title></dc:title>
      </cc:Work>
    </rdf:RDF>
  </metadata>
  <g
     inkscape:label="Ebene 1"
     inkscape:groupmode="layer"
     id="layer1"
     transform="translate(-243.17807,-3.186741)">
    <g
       id="g10838"
       transform="matrix(148.89354,0,0,-148.89354,447.18679,107.80918)">
      <path
         inkscape:connector-curvature="0"
         d="m 0,0 c 0,-0.212 -0.117,-0.387 -0.369,-0.387 l -0.258,0 0,0.783 0.258,0 C -0.117,0.396 0,0.216 0,0 m -0.627,-0.776 0,0.221 0.258,0 c 0.464,0 0.721,0.244 0.721,0.555 0,0.319 -0.257,0.559 -0.721,0.559 l -0.934,0 0,-0.091 c 0.302,0 0.357,-0.072 0.357,-0.523 l 0,-0.721 c 0,-0.45 -0.055,-0.527 -0.357,-0.527 l 0,-0.09 1.032,0 0,0.09 c -0.301,0 -0.356,0.077 -0.356,0.527"
         style="fill:#416e9f;fill-opacity:1;fill-rule:evenodd;stroke:none"
         id="path10840" />
    </g>
    <g
       id="g10842"
       transform="matrix(148.89354,0,0,-148.89354,627.24196,219.2554)">
      <path
         inkscape:connector-curvature="0"
         d="m 0,0 0.739,0 0.09,-0.207 C 0.942,-0.473 0.91,-0.549 0.586,-0.549 l 0,-0.096 1.009,0 0,0.096 c -0.239,0 -0.292,0.053 -0.441,0.392 l -0.663,1.541 -0.063,0 -0.662,-1.541 c -0.149,-0.339 -0.19,-0.392 -0.464,-0.392 l 0,-0.096 0.851,0 0,0.096 c -0.356,0 -0.356,0.076 -0.243,0.342 L 0,0 z m 0.667,0.167 -0.595,0 0.297,0.69 0.298,-0.69 z"
         style="fill:#416e9f;fill-opacity:1;fill-rule:evenodd;stroke:none"
         id="path10844" />
    </g>
    <g
       id="g10846"
       transform="matrix(148.89354,0,0,-148.89354,963.31255,115.92448)">
      <path
         inkscape:connector-curvature="0"
         d="m 0,0 0,-0.721 c 0,-0.451 -0.054,-0.527 -0.356,-0.527 l 0,-0.09 0.879,0 0,0.09 c -0.302,0 -0.356,0.076 -0.356,0.527 l 0,0.883 1.311,-1.572 0.085,0 0,1.41 c 0,0.45 0.055,0.523 0.357,0.523 l 0,0.089 -0.879,0 0,-0.089 C 1.343,0.523 1.397,0.45 1.397,0 l 0,-0.811 -1.198,1.423 -0.555,0 0,-0.089 C -0.054,0.523 0,0.45 0,0"
         style="fill:#416e9f;fill-opacity:1;fill-rule:evenodd;stroke:none"
         id="path10848" />
    </g>
    <g
       id="g10850"
       transform="matrix(148.89354,0,0,-148.89354,1560.671,169.58452)">
      <path
         inkscape:connector-curvature="0"
         d="m 0,0 c 0,-0.36 -0.118,-0.811 -0.712,-0.811 l -0.036,0 c -0.225,0 -0.257,0.05 -0.257,0.343 l 0,1.279 0.293,0 C -0.118,0.811 0,0.356 0,0 m -1.681,-0.978 0.956,0 c 0.766,0 1.099,0.442 1.099,0.978 0,0.531 -0.333,0.973 -1.099,0.973 l -0.956,0 0,-0.09 c 0.302,0 0.356,-0.072 0.356,-0.523 l 0,-0.72 c 0,-0.451 -0.054,-0.527 -0.356,-0.527 l 0,-0.091 z"
         style="fill:#416e9f;fill-opacity:1;fill-rule:evenodd;stroke:none"
         id="path10852" />
    </g>
    <g
       id="g10854"
       transform="matrix(148.89354,0,0,-148.89354,2014.3651,169.58452)">
      <path
         inkscape:connector-curvature="0"
         d="m 0,0 c 0,0.572 -0.496,1.05 -1.099,1.05 -0.604,0 -1.1,-0.478 -1.1,-1.05 0,-0.581 0.496,-1.054 1.1,-1.054 C -0.496,-1.054 0,-0.581 0,0 m -0.37,0 c 0,-0.392 -0.198,-0.879 -0.729,-0.879 -0.532,0 -0.731,0.487 -0.731,0.879 0,0.387 0.199,0.879 0.731,0.879 0.531,0 0.729,-0.492 0.729,-0.879"
         style="fill:#416e9f;fill-opacity:1;fill-rule:evenodd;stroke:none"
         id="path10856" />
    </g>
    <g
       id="g10858"
       transform="matrix(148.89354,0,0,-148.89354,2270.3298,107.80918)">
      <path
         inkscape:connector-curvature="0"
         d="m 0,0 c 0,-0.212 -0.117,-0.387 -0.369,-0.387 l -0.258,0 0,0.783 0.258,0 C -0.117,0.396 0,0.216 0,0 m -0.194,-0.545 c 0.338,0.044 0.546,0.27 0.546,0.545 0,0.319 -0.258,0.559 -0.721,0.559 l -0.934,0 0,-0.091 c 0.302,0 0.356,-0.072 0.356,-0.523 l 0,-0.721 c 0,-0.45 -0.054,-0.527 -0.356,-0.527 l 0,-0.09 1.032,0 0,0.09 c -0.301,0 -0.356,0.077 -0.356,0.527 l 0,0.221 0.127,0 0.613,-0.838 0.576,0 0,0.09 c -0.216,0.032 -0.423,0.207 -0.604,0.419 l -0.279,0.339 z"
         style="fill:#416e9f;fill-opacity:1;fill-rule:evenodd;stroke:none"
         id="path10860" />
    </g>
    <g
       id="g10862"
       transform="matrix(148.89354,0,0,-148.89354,2509.7935,219.2554)">
      <path
         inkscape:connector-curvature="0"
         d="m 0,0 0.739,0 0.09,-0.207 C 0.942,-0.473 0.91,-0.549 0.586,-0.549 l 0,-0.096 1.01,0 0,0.096 c -0.24,0 -0.293,0.053 -0.442,0.392 l -0.662,1.541 -0.064,0 -0.662,-1.541 c -0.149,-0.339 -0.19,-0.392 -0.464,-0.392 l 0,-0.096 0.851,0 0,0.096 c -0.356,0 -0.356,0.076 -0.243,0.342 L 0,0 z m 0.667,0.167 -0.595,0 0.298,0.69 0.297,-0.69 z"
         style="fill:#416e9f;fill-opacity:1;fill-rule:evenodd;stroke:none"
         id="path10864" />
    </g>
    <path
       inkscape:connector-curvature="0"
       d="m 2747.3383,370.3085 -2493.96683,0 0,-6.25353 2493.96683,0 0,6.25353 z"
       style="fill:#9c9c9c;fill-opacity:1;fill-rule:nonzero;stroke:none"
       id="path10870" />
    <g
       id="g10872"
       transform="matrix(148.89354,0,0,-148.89354,1709.4776,422.8834)">
      <path
         inkscape:connector-curvature="0"
         d="m 0,0 c -0.031,0 -0.058,0.025 -0.058,0.059 0,0.03 0.027,0.056 0.058,0.056 0.031,0 0.058,-0.026 0.058,-0.056 C 0.058,0.025 0.031,0 0,0 m -0.149,-0.584 0,0.027 c 0.086,0 0.103,0.023 0.103,0.152 l 0,0.066 c 0,0.13 -0.017,0.15 -0.103,0.15 l 0,0.029 0.196,0.032 0,-0.277 c 0,-0.129 0.016,-0.152 0.103,-0.152 l 0,-0.027 -0.299,0 z"
         style="fill:#9c9c9c;fill-opacity:1;fill-rule:nonzero;stroke:none"
         id="path10874" />
    </g>
    <g
       id="g10876"
       transform="matrix(148.89354,0,0,-148.89354,1798.946,441.95607)">
      <path
         inkscape:connector-curvature="0"
         d="m 0,0 c 0.118,0 0.169,-0.083 0.169,-0.194 l 0,-0.082 c 0,-0.13 0.017,-0.153 0.104,-0.153 l 0,-0.027 -0.299,0 0,0.027 c 0.085,0 0.103,0.023 0.103,0.153 l 0,0.075 c 0,0.085 -0.03,0.14 -0.108,0.14 -0.072,0 -0.15,-0.059 -0.15,-0.13 l 0,-0.085 c 0,-0.135 0.011,-0.153 0.091,-0.153 l 0,-0.027 -0.287,0 0,0.027 c 0.086,0 0.103,0.023 0.103,0.153 l 0,0.065 c 0,0.13 -0.017,0.151 -0.103,0.151 l 0,0.028 L -0.204,0 c 0.007,-0.013 0.018,-0.066 0.023,-0.093 C -0.146,-0.049 -0.086,0 0,0"
         style="fill:#9c9c9c;fill-opacity:1;fill-rule:nonzero;stroke:none"
         id="path10878" />
    </g>
    <g
       id="g10880"
       transform="matrix(148.89354,0,0,-148.89354,1848.6168,451.99149)">
      <path
         inkscape:connector-curvature="0"
         d="M 0,0 0,0.031 C 0.078,0.048 0.106,0.104 0.116,0.19 l 0.044,0 0,-0.144 0.114,0 0,-0.046 -0.114,0 0,-0.264 c 0,-0.062 0.017,-0.095 0.059,-0.095 0.023,0 0.055,0.017 0.085,0.046 L 0.325,-0.336 C 0.29,-0.38 0.232,-0.411 0.19,-0.411 c -0.072,0 -0.122,0.046 -0.122,0.147 L 0.068,0 0,0 z"
         style="fill:#9c9c9c;fill-opacity:1;fill-rule:nonzero;stroke:none"
         id="path10882" />
    </g>
    <g
       id="g10884"
       transform="matrix(148.89354,0,0,-148.89354,1958.6635,465.40621)">
      <path
         inkscape:connector-curvature="0"
         d="M 0,0 C 0.014,0.042 -0.008,0.105 -0.094,0.105 -0.15,0.105 -0.198,0.064 -0.216,0 L 0,0 z m -0.055,-0.267 c 0.044,0 0.106,0.026 0.143,0.061 l 0.025,-0.028 c -0.047,-0.049 -0.126,-0.086 -0.2,-0.086 -0.144,0 -0.241,0.107 -0.241,0.239 0,0.139 0.119,0.238 0.241,0.238 0.115,0 0.209,-0.093 0.177,-0.206 l -0.314,0 C -0.24,-0.17 -0.19,-0.267 -0.055,-0.267"
         style="fill:#9c9c9c;fill-opacity:1;fill-rule:nonzero;stroke:none"
         id="path10886" />
    </g>
    <g
       id="g10888"
       transform="matrix(148.89354,0,0,-148.89354,2046.8084,463.03939)">
      <path
         inkscape:connector-curvature="0"
         d="m 0,0 c -0.024,0 -0.046,0.021 -0.046,0.047 0,0.027 -0.016,0.042 -0.041,0.042 -0.031,0 -0.101,-0.047 -0.101,-0.152 l 0,-0.072 c 0,-0.13 0.016,-0.152 0.104,-0.152 l 0,-0.027 -0.299,0 0,0.027 c 0.086,0 0.102,0.022 0.102,0.152 l 0,0.066 c 0,0.13 -0.016,0.151 -0.102,0.151 l 0,0.027 0.173,0.033 c 0.006,-0.013 0.018,-0.067 0.022,-0.094 0.026,0.052 0.085,0.094 0.137,0.094 0.072,0 0.103,-0.049 0.103,-0.081 C 0.052,0.032 0.041,0 0,0"
         style="fill:#9c9c9c;fill-opacity:1;fill-rule:nonzero;stroke:none"
         id="path10890" />
    </g>
    <g
       id="g10892"
       transform="matrix(148.89354,0,0,-148.89354,2122.1188,441.95607)">
      <path
         inkscape:connector-curvature="0"
         d="m 0,0 c 0.118,0 0.169,-0.083 0.169,-0.194 l 0,-0.082 c 0,-0.13 0.017,-0.153 0.104,-0.153 l 0,-0.027 -0.299,0 0,0.027 c 0.085,0 0.103,0.023 0.103,0.153 l 0,0.075 c 0,0.085 -0.03,0.14 -0.108,0.14 -0.072,0 -0.15,-0.059 -0.15,-0.13 l 0,-0.085 c 0,-0.135 0.011,-0.153 0.091,-0.153 l 0,-0.027 -0.287,0 0,0.027 c 0.086,0 0.103,0.023 0.103,0.153 l 0,0.065 c 0,0.13 -0.017,0.151 -0.103,0.151 l 0,0.028 L -0.204,0 c 0.007,-0.013 0.018,-0.066 0.023,-0.093 C -0.146,-0.049 -0.086,0 0,0"
         style="fill:#9c9c9c;fill-opacity:1;fill-rule:nonzero;stroke:none"
         id="path10894" />
    </g>
    <g
       id="g10896"
       transform="matrix(148.89354,0,0,-148.89354,2224.5718,465.40621)">
      <path
         inkscape:connector-curvature="0"
         d="M 0,0 C 0.014,0.042 -0.008,0.105 -0.093,0.105 -0.15,0.105 -0.198,0.064 -0.216,0 L 0,0 z m -0.055,-0.267 c 0.044,0 0.106,0.026 0.143,0.061 l 0.025,-0.028 c -0.047,-0.049 -0.126,-0.086 -0.2,-0.086 -0.144,0 -0.241,0.107 -0.241,0.239 0,0.139 0.119,0.238 0.241,0.238 0.115,0 0.209,-0.093 0.177,-0.206 l -0.314,0 c -0.015,-0.121 0.034,-0.218 0.169,-0.218"
         style="fill:#9c9c9c;fill-opacity:1;fill-rule:nonzero;stroke:none"
         id="path10898" />
    </g>
    <g
       id="g10900"
       transform="matrix(148.89354,0,0,-148.89354,2253.6811,451.99149)">
      <path
         inkscape:connector-curvature="0"
         d="M 0,0 0,0.031 C 0.078,0.048 0.106,0.104 0.117,0.19 l 0.043,0 0,-0.144 0.114,0 0,-0.046 -0.114,0 0,-0.264 c 0,-0.062 0.017,-0.095 0.059,-0.095 0.023,0 0.055,0.017 0.085,0.046 L 0.326,-0.336 C 0.29,-0.38 0.232,-0.411 0.19,-0.411 c -0.072,0 -0.122,0.046 -0.122,0.147 L 0.068,0 0,0 z"
         style="fill:#9c9c9c;fill-opacity:1;fill-rule:nonzero;stroke:none"
         id="path10902" />
    </g>
    <g
       id="g10904"
       transform="matrix(148.89354,0,0,-148.89354,2415.158,463.03939)">
      <path
         inkscape:connector-curvature="0"
         d="m 0,0 c -0.024,0 -0.046,0.021 -0.046,0.047 0,0.027 -0.015,0.042 -0.041,0.042 -0.031,0 -0.101,-0.047 -0.101,-0.152 l 0,-0.072 c 0,-0.13 0.017,-0.152 0.104,-0.152 l 0,-0.027 -0.299,0 0,0.027 c 0.086,0 0.103,0.022 0.103,0.152 l 0,0.066 c 0,0.13 -0.017,0.151 -0.103,0.151 l 0,0.027 0.173,0.033 c 0.006,-0.013 0.018,-0.067 0.022,-0.094 0.027,0.052 0.085,0.094 0.137,0.094 0.072,0 0.104,-0.049 0.104,-0.081 C 0.053,0.032 0.041,0 0,0"
         style="fill:#9c9c9c;fill-opacity:1;fill-rule:nonzero;stroke:none"
         id="path10906" />
    </g>
    <g
       id="g10908"
       transform="matrix(148.89354,0,0,-148.89354,2474.7892,474.56376)">
      <path
         inkscape:connector-curvature="0"
         d="m 0,0 c -0.124,-0.028 -0.179,-0.072 -0.179,-0.129 0,-0.041 0.028,-0.067 0.06,-0.067 0.028,0 0.059,0.009 0.119,0.063 L 0,0 z m 0.091,-0.251 c -0.05,0 -0.082,0.028 -0.089,0.076 -0.064,-0.058 -0.11,-0.079 -0.162,-0.079 -0.064,0 -0.118,0.04 -0.118,0.109 0,0.112 0.13,0.159 0.278,0.186 0,0.097 -0.013,0.136 -0.087,0.136 -0.031,0 -0.075,-0.021 -0.075,-0.062 0,-0.027 -0.019,-0.046 -0.044,-0.046 -0.026,0 -0.045,0.019 -0.045,0.046 0,0.062 0.082,0.104 0.165,0.104 0.127,0 0.178,-0.054 0.178,-0.177 l 0,-0.197 c 0,-0.033 0.011,-0.051 0.031,-0.051 0.013,0 0.027,0.01 0.036,0.019 L 0.177,-0.211 C 0.152,-0.237 0.12,-0.251 0.091,-0.251"
         style="fill:#9c9c9c;fill-opacity:1;fill-rule:nonzero;stroke:none"
         id="path10910" />
    </g>
    <g
       id="g10912"
       transform="matrix(148.89354,0,0,-148.89354,2571.0328,465.03457)">
      <path
         inkscape:connector-curvature="0"
         d="m 0,0 c -0.023,0.062 -0.073,0.103 -0.132,0.103 -0.101,0 -0.148,-0.082 -0.148,-0.187 0,-0.104 0.047,-0.188 0.148,-0.188 0.059,0 0.109,0.043 0.132,0.104 L 0,0 z m 0,0.291 c 0,0.131 -0.015,0.153 -0.103,0.153 l 0,0.026 0.195,0.034 0,-0.615 c 0,-0.13 0.017,-0.153 0.104,-0.153 l 0,-0.027 -0.174,-0.032 c -0.006,0.013 -0.017,0.058 -0.021,0.08 -0.036,-0.047 -0.088,-0.08 -0.16,-0.08 -0.124,0 -0.226,0.108 -0.226,0.239 0,0.132 0.102,0.239 0.226,0.239 0.066,0 0.119,-0.028 0.159,-0.077 l 0,0.213 z"
         style="fill:#9c9c9c;fill-opacity:1;fill-rule:nonzero;stroke:none"
         id="path10914" />
    </g>
    <g
       id="g10916"
       transform="matrix(148.89354,0,0,-148.89354,2633.3918,422.8834)">
      <path
         inkscape:connector-curvature="0"
         d="m 0,0 c -0.031,0 -0.058,0.025 -0.058,0.059 0,0.03 0.027,0.056 0.058,0.056 0.031,0 0.058,-0.026 0.058,-0.056 C 0.058,0.025 0.031,0 0,0 m -0.149,-0.584 0,0.027 c 0.086,0 0.103,0.023 0.103,0.152 l 0,0.066 c 0,0.13 -0.017,0.15 -0.103,0.15 l 0,0.029 0.196,0.032 0,-0.277 c 0,-0.129 0.016,-0.152 0.103,-0.152 l 0,-0.027 -0.299,0 z"
         style="fill:#9c9c9c;fill-opacity:1;fill-rule:nonzero;stroke:none"
         id="path10918" />
    </g>
    <g
       id="g10920"
       transform="matrix(148.89354,0,0,-148.89354,2707.9101,449.26615)">
      <path
         inkscape:connector-curvature="0"
         d="m 0,0 c -0.106,0 -0.158,-0.085 -0.158,-0.19 0,-0.104 0.052,-0.188 0.158,-0.188 0.108,0 0.158,0.084 0.158,0.188 C 0.158,-0.085 0.108,0 0,0 m 0,-0.429 c -0.145,0 -0.264,0.108 -0.264,0.239 0,0.132 0.119,0.239 0.264,0.239 0.145,0 0.264,-0.107 0.264,-0.239 0,-0.131 -0.119,-0.239 -0.264,-0.239"
         style="fill:#9c9c9c;fill-opacity:1;fill-rule:nonzero;stroke:none"
         id="path10922" />
    </g>
  </g>
</svg>
